STARTFONT 2.3
FONT -FontForge-Zen Loop-Book-R-Normal--32-320-72-72-P-102-ISO10646-1
SIZE 32 72 72  4
FONTBOUNDINGBOX 28 36 -4 -9
COMMENT "Generated by fontforge, http://fontforge.sourceforge.net"
COMMENT "Copyright 2021 The Zen-Loop Project Authors (https://github.com/googlefonts/zen-loop)"
STARTPROPERTIES 40
FOUNDRY "FontForge"
FAMILY_NAME "Zen Loop"
WEIGHT_NAME "Book"
SLANT "R"
SETWIDTH_NAME "Normal"
ADD_STYLE_NAME ""
PIXEL_SIZE 32
POINT_SIZE 320
RESOLUTION_X 72
RESOLUTION_Y 72
SPACING "P"
AVERAGE_WIDTH 102
CHARSET_REGISTRY "ISO10646"
CHARSET_ENCODING "1"
FONTNAME_REGISTRY ""
CHARSET_COLLECTIONS "ISO10646-1"
BITS_PER_PIXEL 4
FONT_NAME "ZenLoop-Regular"
FACE_NAME "Zen Loop Regular"
COPYRIGHT "Copyright 2021 The Zen-Loop Project Authors (https://github.com/googlefonts/zen-loop)"
FONT_VERSION "1.000; ttfautohint (v1.8.3)"
FONT_ASCENT 26
FONT_DESCENT 6
UNDERLINE_POSITION -5
UNDERLINE_THICKNESS 1
X_HEIGHT 14
CAP_HEIGHT 21
RAW_ASCENT 800
RAW_DESCENT 200
NORM_SPACE 8
RELATIVE_WEIGHT 40
RELATIVE_SETWIDTH 50
SUPERSCRIPT_X 0
SUPERSCRIPT_Y 11
SUPERSCRIPT_SIZE 19
SUBSCRIPT_X 0
SUBSCRIPT_Y 2
SUBSCRIPT_SIZE 19
AVG_LOWERCASE_WIDTH 93
AVG_UPPERCASE_WIDTH 122
ENDPROPERTIES
CHARS 248
STARTCHAR CR
ENCODING 13
SWIDTH 600 0
DWIDTH 19 0
BBX 1 1 0 0
BITMAP
00
ENDCHAR
STARTCHAR space
ENCODING 32
SWIDTH 240 0
DWIDTH 8 0
BBX 1 1 0 0
BITMAP
00
ENDCHAR
STARTCHAR exclam
ENCODING 33
SWIDTH 141 0
DWIDTH 5 0
BBX 2 22 1 0
BITMAP
18
19
19
19
19
19
19
19
19
19
19
19
19
19
19
19
03
00
00
18
19
18
ENDCHAR
STARTCHAR quotedbl
ENCODING 34
SWIDTH 195 0
DWIDTH 6 0
BBX 4 6 1 16
BITMAP
6409
640A
640A
640A
640A
6409
ENDCHAR
STARTCHAR numbersign
ENCODING 35
SWIDTH 454 0
DWIDTH 15 0
BBX 14 22 0 0
BITMAP
00000090000720
00000280000A00
00000560000A00
00000730001A00
00000A10003700
00000A00006500
00000A00008200
00ABCDBBBBEBB9
0000550000A000
00008200029000
0000A000056000
0000A000083000
000280000A0000
000550000A0000
3BBDCBBBCEBB50
000A0000470000
000A0000640000
000A0000920000
00380000A00000
00550000A00000
00820001900000
00900003600000
ENDCHAR
STARTCHAR dollar
ENCODING 36
SWIDTH 356 0
DWIDTH 11 0
BBX 11 28 0 -3
BITMAP
000006000000
00000A000000
00000A000000
0004AEB81000
007A2A04B100
02B00A004700
07400A000500
09200A000000
08200A000000
05600A000000
00A10A000000
002A2A000000
0001AC000000
00000C700000
00000A691000
00000A03A100
00000A002900
00000A000820
00000A000560
45000A000560
1A000A000840
08400A001C00
00B61A04C300
0017DEC92000
00000A000000
00000A000000
00000A000000
000003000000
ENDCHAR
STARTCHAR percent
ENCODING 37
SWIDTH 470 0
DWIDTH 15 0
BBX 13 22 1 0
BITMAP
03BBA100007300
0C20590000A000
56000A10056000
920006500A1000
A0000460280000
A0000560820000
83000741A00000
48000B16500000
0B30680A000000
02AB8037000000
00000091000000
00000190000000
000007308CA200
00000B08603B00
0000561B000750
0000A147000290
000280550000B0
000920650000B0
001A0047000290
0065001B000650
00B00009501B00
02700001ABB300
ENDCHAR
STARTCHAR ampersand
ENCODING 38
SWIDTH 520 0
DWIDTH 17 0
BBX 15 22 1 0
BITMAP
000006CC60000000
00003A00A3000000
0000830047000000
0000A00038000000
0000B00047000000
0000A00083000000
0000A001A0000000
0000830A20000000
0000569400000000
00002E5000000000
00009C0000000000
000A47400019C500
00A4019000950B00
075000A101A00100
1A00004807400000
7400000B1B000000
91000003A9000000
A0000000A5000000
92000001BA100000
5800000A32B10000
0B400196002B4000
019CBB4000018B70
ENDCHAR
STARTCHAR quotesingle
ENCODING 39
SWIDTH 121 0
DWIDTH 4 0
BBX 2 6 1 16
BITMAP
64
64
64
64
64
64
ENDCHAR
STARTCHAR parenleft
ENCODING 40
SWIDTH 233 0
DWIDTH 7 0
BBX 5 26 2 -2
BITMAP
000550
000B00
006600
00B000
038000
083000
0A0000
190000
460000
730000
910000
A00000
A00000
A00000
A00000
910000
730000
460000
190000
0A0000
082000
038000
00B000
006600
000B00
000550
ENDCHAR
STARTCHAR parenright
ENCODING 41
SWIDTH 233 0
DWIDTH 7 0
BBX 5 26 1 -2
BITMAP
A00000
750000
1B0000
074000
019000
00A100
006400
003800
000A00
000A00
000A10
000820
000730
000730
000820
000A10
000A00
000A00
003800
006400
00A100
019000
074000
1B0000
740000
A00000
ENDCHAR
STARTCHAR asterisk
ENCODING 42
SWIDTH 313 0
DWIDTH 10 0
BBX 8 7 1 15
BITMAP
00055000
00055000
54055045
16ABBA61
001BB100
00933900
04700640
ENDCHAR
STARTCHAR plus
ENCODING 43
SWIDTH 577 0
DWIDTH 18 0
BBX 16 15 1 0
BITMAP
0000000180000000
0000000280000000
0000000280000000
0000000280000000
0000000280000000
0000000280000000
0000000280000000
4BBBBBBCDBBBBBB9
0000000280000000
0000000280000000
0000000280000000
0000000280000000
0000000280000000
0000000280000000
0000000180000000
ENDCHAR
STARTCHAR comma
ENCODING 44
SWIDTH 145 0
DWIDTH 5 0
BBX 3 6 0 -3
BITMAP
0090
00A0
00A0
00A0
0380
3B10
ENDCHAR
STARTCHAR hyphen
ENCODING 45
SWIDTH 286 0
DWIDTH 9 0
BBX 7 1 1 9
BITMAP
7BBBBB90
ENDCHAR
STARTCHAR period
ENCODING 46
SWIDTH 181 0
DWIDTH 6 0
BBX 2 3 2 0
BITMAP
63
74
63
ENDCHAR
STARTCHAR slash
ENCODING 47
SWIDTH 292 0
DWIDTH 9 0
BBX 10 26 0 -2
BITMAP
0000000031
00000000A0
0000000190
0000000640
0000000A00
0000001900
0000006400
000000A000
0000019000
0000064000
00000A0000
0000290000
0000640000
0000A00000
0002900000
0007400000
000A000000
0029000000
0074000000
00A0000000
0290000000
0740000000
0A00000000
2900000000
7400000000
9000000000
ENDCHAR
STARTCHAR zero
ENCODING 48
SWIDTH 378 0
DWIDTH 12 0
BBX 10 22 1 0
BITMAP
0008CB9100
00A6004A00
0490000750
0A200001A0
0B000000A1
3800000065
6500000047
8300000029
920000000A
A10000000A
A00000000A
A00000000A
A10000000A
920000000A
8300000029
6500000047
3800000065
0B000000A1
0A200001B0
0490000750
00A6004A00
0009CB9100
ENDCHAR
STARTCHAR one
ENCODING 49
SWIDTH 303 0
DWIDTH 10 0
BBX 10 22 0 0
BITMAP
0005C50000
06C7650000
0200550000
0000550000
0000550000
0000550000
0000550000
0000550000
0000550000
0000550000
0000550000
0000550000
0000550000
0000550000
0000550000
0000550000
0000550000
0000550000
0000550000
0000550000
0000550000
1BBBDDBBB2
ENDCHAR
STARTCHAR two
ENCODING 50
SWIDTH 343 0
DWIDTH 11 0
BBX 11 22 0 0
BITMAP
0006BBC80000
00970006A000
048000008400
041000003800
000000000A00
000000000A00
000000001900
000000004600
000000009200
000000029000
000000092000
000000660000
000003900000
00001A000000
0000A2000000
000750000000
003900000000
00A100000000
065000000000
0A0000000000
370000000000
5DBBBBBBBB10
ENDCHAR
STARTCHAR three
ENCODING 51
SWIDTH 377 0
DWIDTH 12 0
BBX 10 22 1 0
BITMAP
0019BBA100
01C3003B00
0840000750
06000002A0
00000000B0
00000000B0
00000001A0
0000000470
0000000A20
004ABB8800
02A129AA10
01ACA402A0
0000000083
0000000028
000000000A
000000000B
000000000A
0000000038
0000000084
70000002B0
5A20004C20
039BBC9100
ENDCHAR
STARTCHAR four
ENCODING 52
SWIDTH 389 0
DWIDTH 12 0
BBX 11 22 1 0
BITMAP
000000360000
000000A10000
000002800000
000009200000
000019000000
000083000000
0001A0000000
000740090000
000A000A0000
0055000A0000
00A0000A0000
0460000A0000
0A10000A0000
3800000A0000
9100000A0000
CBBBBBBEBB30
0000000A0000
0000000A0000
0000000A0000
0000000A0000
0000000A0000
000000090000
ENDCHAR
STARTCHAR five
ENCODING 53
SWIDTH 372 0
DWIDTH 12 0
BBX 10 24 1 0
BITMAP
0000000001
0000000186
009CBBBB60
0091000000
0091000000
0091000000
0091000000
0091000000
0091000000
0091000000
0091000000
00ABBB7100
09D1005B10
74A00003A0
A1B0000084
6B30000028
000000000A
000000000B
000000000A
0000000038
0000000084
70000002B0
5A20004C20
039BBC9100
ENDCHAR
STARTCHAR six
ENCODING 54
SWIDTH 360 0
DWIDTH 12 0
BBX 10 22 1 0
BITMAP
000003A000
00003B1000
0001B10000
0009400000
0039000000
00A2000000
0290000000
0830000000
0B00000000
2900000000
5605BBB400
8388101A50
92400000B0
A100000074
B000000037
A000000028
9200000037
6500000065
29000000A1
0B20000390
03C2004C10
003BBB9200
ENDCHAR
STARTCHAR seven
ENCODING 55
SWIDTH 321 0
DWIDTH 10 0
BBX 10 22 0 0
BITMAP
1BBBBBBBE1
00000000A0
0000000370
0000000820
0000000A00
0000003700
0000008200
000000A000
0000037000
0000082000
00000A0000
0000370000
0000820000
0000A00000
0003700000
0008200000
000A000000
0038000000
0083000000
00A0000000
0380000000
0630000000
ENDCHAR
STARTCHAR eight
ENCODING 56
SWIDTH 377 0
DWIDTH 12 0
BBX 10 22 1 0
BITMAP
003BBBB400
04B2001B50
0C100001C0
3800000074
5600000056
4700000064
1A00000091
0930000290
01B2001B10
002B43B200
0001DD2000
003B43A300
02B1001A20
0B200001B0
5700000056
920000001A
A00000000B
A10000000A
7500000047
1B000000B2
05A1001A60
003ABBB400
ENDCHAR
STARTCHAR nine
ENCODING 57
SWIDTH 360 0
DWIDTH 12 0
BBX 10 22 1 0
BITMAP
005BBC7000
0791007900
2B00000940
83000002A0
B0000000B0
A000000091
A000000083
B000000073
B000000083
6500001392
0B4003B2A1
018BB910B0
0000000190
0000000560
0000000A10
0000001A00
0000008300
000002A000
00000A2000
0000760000
0006900000
0039000000
ENDCHAR
STARTCHAR colon
ENCODING 58
SWIDTH 181 0
DWIDTH 6 0
BBX 2 15 2 0
BITMAP
63
74
63
00
00
00
00
00
00
00
00
00
63
74
63
ENDCHAR
STARTCHAR semicolon
ENCODING 59
SWIDTH 165 0
DWIDTH 5 0
BBX 3 18 0 -3
BITMAP
0090
00A0
0090
0000
0000
0000
0000
0000
0000
0000
0000
0000
0090
00A0
00A0
00A0
0380
3B10
ENDCHAR
STARTCHAR less
ENCODING 60
SWIDTH 482 0
DWIDTH 15 0
BBX 13 13 1 1
BITMAP
00000000000670
0000000005B600
00000005B60000
000005B6000000
0005B600000000
04B70000000000
3E400000000000
018A3000000000
00018A30000000
0000018A300000
000000018A3000
00000000019A30
00000000000250
ENDCHAR
STARTCHAR equal
ENCODING 61
SWIDTH 577 0
DWIDTH 18 0
BBX 16 6 1 5
BITMAP
4BBBBBBBBBBBBBB9
0000000000000000
0000000000000000
0000000000000000
0000000000000000
4BBBBBBBBBBBBBB9
ENDCHAR
STARTCHAR greater
ENCODING 62
SWIDTH 482 0
DWIDTH 15 0
BBX 13 13 1 1
BITMAP
34000000000000
17B40000000000
0017A400000000
000017A4000000
00000018A40000
0000000018A400
00000000001B90
0000000003A810
00000003A81000
000003A8100000
0003A810000000
03A81000000000
39200000000000
ENDCHAR
STARTCHAR question
ENCODING 63
SWIDTH 300 0
DWIDTH 10 0
BBX 7 22 1 0
BITMAP
06BCC500
78001B30
A0000290
000000B0
000000B0
00000290
00000740
00001B00
00008400
00039000
000A1000
00560000
00B00000
00B00000
00A10000
00480000
00020000
00000000
00000000
00270000
00280000
00270000
ENDCHAR
STARTCHAR at
ENCODING 64
SWIDTH 748 0
DWIDTH 24 0
BBX 22 22 1 0
BITMAP
00000015ABBBBB84000000
000007B620000039B30000
0002B600000000001A6000
002C20000004BB10009600
00B2000000591480000A30
0660000002A000A00002B0
0B0000000B1000A0000092
4800000066000290000047
74000000B0000010000028
910000056000000000001A
A000000A1004C400000029
A000001A002A3700000046
91000055008364000000A2
7400009200A1B0000002A0
480000A000A84000000B20
0B0000A000A8000001A500
066000A002AA20016B3000
00B200921A13ABCB610000
002C202BA2000000000000
0002B60000000000007700
000007C6200000148B4000
00000015ABBBBBB7300000
ENDCHAR
STARTCHAR A
ENCODING 65
SWIDTH 414 0
DWIDTH 13 0
BBX 13 22 0 0
BITMAP
000000B1000000
000001F4000000
00000598000000
0000092B000000
00000B09100000
00002906500000
00006502A00000
0000A100B00000
0000B000930000
00038000570000
000740001B0000
000B10000B0000
001B0000084000
005DBBBBBC8000
0093000000C000
00C0000000B100
02A00000006500
06500000002900
0A100000000B00
0B000000000830
38000000000470
63000000000090
ENDCHAR
STARTCHAR B
ENCODING 66
SWIDTH 375 0
DWIDTH 12 0
BBX 10 22 1 0
BITMAP
1DBBBB7000
1900007900
1900000930
1900000290
19000000B0
19000000B0
19000000A0
19000000A0
19000000A0
192BCA3190
1939129C30
1903ABA950
19000000B0
1900000092
1900000065
1900000056
1900000055
1900000083
19000000B0
1900000670
1900017A00
1DBBBB6000
ENDCHAR
STARTCHAR C
ENCODING 67
SWIDTH 366 0
DWIDTH 12 0
BBX 10 22 1 0
BITMAP
0002ABCC70
003B300065
01C1000000
0750000000
0B00000000
2900000000
5600000000
7300000000
9100000000
A100000000
A000000000
A000000000
A100000000
9100000000
7300000000
5500000000
2900000000
0B00000000
0750000000
01C1000000
004B300066
0002ABCC70
ENDCHAR
STARTCHAR D
ENCODING 68
SWIDTH 396 0
DWIDTH 13 0
BBX 11 22 1 0
BITMAP
1DBBBBA20000
1900003B3000
19000002B000
190000007400
190000002900
190000000B00
190000000A10
190000000830
190000000640
190000000550
190000000560
190000000560
190000000550
190000000640
190000000830
190000000A10
190000000B00
190000002900
190000008400
19000002B000
1900003C3000
1DBBBBA20000
ENDCHAR
STARTCHAR E
ENCODING 69
SWIDTH 309 0
DWIDTH 10 0
BBX 8 22 1 0
BITMAP
1DBBBBB6
19000000
19000000
19000000
19000000
19000000
19000000
19000000
19000000
19000000
1EBBBBB2
19000000
19000000
19000000
19000000
19000000
19000000
19000000
19000000
19000000
19000000
1DBBBBB6
ENDCHAR
STARTCHAR F
ENCODING 70
SWIDTH 299 0
DWIDTH 10 0
BBX 8 22 1 0
BITMAP
1DBBBBB6
19000000
19000000
19000000
19000000
19000000
19000000
19000000
19000000
19000000
1EBBBBB2
19000000
19000000
19000000
19000000
19000000
19000000
19000000
19000000
19000000
19000000
18000000
ENDCHAR
STARTCHAR G
ENCODING 71
SWIDTH 382 0
DWIDTH 12 0
BBX 10 22 1 0
BITMAP
0002ABCC70
003B300065
01C1000000
0750000000
0B00000000
2900000000
5600000000
7300000000
9100000000
A100000000
A000000000
A000000000
A00005BBBB
910000000A
730000000A
550000000A
290000000A
0B0000000A
075000000A
01C100000A
004B300069
0002ABBB60
ENDCHAR
STARTCHAR H
ENCODING 72
SWIDTH 425 0
DWIDTH 14 0
BBX 11 22 1 0
BITMAP
180000000090
1900000000A0
1900000000A0
1900000000A0
1900000000A0
1900000000A0
1900000000A0
1900000000A0
1900000000A0
1900000000A0
1EBBBBBBBBA0
1900000000A0
1900000000A0
1900000000A0
1900000000A0
1900000000A0
1900000000A0
1900000000A0
1900000000A0
1900000000A0
1900000000A0
180000000090
ENDCHAR
STARTCHAR I
ENCODING 73
SWIDTH 141 0
DWIDTH 5 0
BBX 2 22 1 0
BITMAP
18
19
19
19
19
19
19
19
19
19
19
19
19
19
19
19
19
19
19
19
19
18
ENDCHAR
STARTCHAR J
ENCODING 74
SWIDTH 142 0
DWIDTH 5 0
BBX 6 28 -3 -6
BITMAP
000019
000019
000019
000019
000019
000019
000019
000019
000019
000019
000019
000019
000019
000019
000019
000019
000019
000019
000019
000019
000019
000019
000019
000028
000046
0000A1
001960
7BA400
ENDCHAR
STARTCHAR K
ENCODING 75
SWIDTH 401 0
DWIDTH 13 0
BBX 12 22 0 0
BITMAP
004500000094
005500000670
005500000B00
005500006500
00550000B000
005500029000
005500074000
0055000B0000
005500560000
17CDCAC00000
A4566A880000
9BCB50049000
005500008300
005500001A00
005500000A00
005500000640
005500000370
0055000000A0
0055000000A0
005500000091
005500000065
004500000027
ENDCHAR
STARTCHAR L
ENCODING 76
SWIDTH 347 0
DWIDTH 11 0
BBX 10 22 1 0
BITMAP
1800000000
1900000000
1900000000
1900000000
1900000000
1900000000
1900000000
1900000000
1900000000
1900000000
1900000000
1900000000
1900000000
1900000000
1900000000
1900000000
1900000000
1900000000
1900000000
1900000000
1900000000
1DBBBBBBB1
ENDCHAR
STARTCHAR M
ENCODING 77
SWIDTH 534 0
DWIDTH 17 0
BBX 15 22 1 0
BITMAP
01C100000001B200
03BC2000001CB400
0463C30002C35500
05502B303B204600
064001A6B1003700
0730002F30002800
08200095A0001900
091000B0A1000A00
0A00019082000A00
0A0000A0A0000A00
0A00007680000A00
0A00001E10000A00
0A00002E40000A00
0A00007680000910
19000091A0000820
28000092A0000730
3700004C60000640
4600000200000550
5500000000000460
6400000000000370
7300000000000280
8200000000000190
ENDCHAR
STARTCHAR N
ENCODING 78
SWIDTH 422 0
DWIDTH 14 0
BBX 11 22 1 0
BITMAP
1A0000000180
1F2000000190
1D8000000190
19C000000190
197600000190
191B00000190
190930000190
190290000190
1900B1000190
190057000190
19000B000190
190007500190
190001A00190
190000920190
190000380190
1900000A1190
190000056190
19000000B190
190000007590
190000001B90
190000000990
180000000380
ENDCHAR
STARTCHAR O
ENCODING 79
SWIDTH 446 0
DWIDTH 14 0
BBX 12 22 1 0
BITMAP
0003ABBB5000
004B30019700
01C100000A30
0750000001B0
0B00000000A2
290000000056
560000000019
73000000000B
91000000000B
A1000000000B
A0000000000B
A0000000000B
A1000000000B
91000000000B
73000000000B
560000000019
290000000056
0B00000000A2
0750000001B0
01C100000A30
004B20019700
0003ABBB5000
ENDCHAR
STARTCHAR P
ENCODING 80
SWIDTH 341 0
DWIDTH 11 0
BBX 9 22 1 0
BITMAP
1DBBBB8100
1900004A00
1900000850
19000002A0
19000000B0
19000000B0
19000000B0
19000000B0
1900000470
1900000B10
1A0003B500
1CBBB92000
1900000000
1900000000
1900000000
1900000000
1900000000
1900000000
1900000000
1900000000
1900000000
1800000000
ENDCHAR
STARTCHAR Q
ENCODING 81
SWIDTH 446 0
DWIDTH 14 0
BBX 12 31 1 -9
BITMAP
0003ABBB5000
004B30019700
01C100000A30
0750000001B0
0B00000000A2
290000000056
560000000029
73000000000B
91000000000B
A1000000000B
A0000000000B
B0000000000B
A1000000000B
95000000000B
8B70000001BB
656800002B49
3905A103B156
0C003A5A10A2
085005E001A0
01C10B660A30
005C580BA700
0004DDBE4000
0000380B0000
00000B560000
000005D00000
000005D00000
000009830000
00000A460000
00000A470000
000009930000
000001500000
ENDCHAR
STARTCHAR R
ENCODING 82
SWIDTH 380 0
DWIDTH 12 0
BBX 12 22 0 0
BITMAP
02DBBBBA2000
02800002B100
028000004900
028000000C00
028000000A20
028000000830
028000000920
028000000A00
028000002900
6BDCA5009100
A68016B93000
17DBBA592000
02800001A000
028000008300
028000002800
028000000A00
028000000910
028000000650
028000000290
0280000000A0
028000000091
027000000054
ENDCHAR
STARTCHAR S
ENCODING 83
SWIDTH 356 0
DWIDTH 11 0
BBX 11 22 0 0
BITMAP
0005BCB92000
00891003B100
039000003800
083000000300
091000000000
082000000000
056000000000
01A000000000
004800000000
000590000000
00003A100000
000002A20000
000000194000
000000009300
000000001A00
000000000830
000000000560
440000000560
1A0000000740
094000001C00
01B50003B400
0007BBCA2000
ENDCHAR
STARTCHAR T
ENCODING 84
SWIDTH 377 0
DWIDTH 12 0
BBX 12 22 0 0
BITMAP
7BBBBCDBBBB8
000004600000
000004600000
000004600000
000004600000
000004600000
000004600000
000004600000
000004600000
000004600000
000004600000
000004600000
000004600000
000004600000
000004600000
000004600000
000004600000
000004600000
000004600000
000004600000
000004600000
000004500000
ENDCHAR
STARTCHAR U
ENCODING 85
SWIDTH 412 0
DWIDTH 13 0
BBX 11 22 1 0
BITMAP
640000000180
640000000190
640000000190
640000000190
640000000190
640000000190
640000000190
640000000190
640000000190
640000000190
640000000190
640000000190
640000000190
640000000190
640000000190
640000000190
640000000190
550000000280
370000000560
0B1000000B10
04B30002A600
003ACBBB4000
ENDCHAR
STARTCHAR V
ENCODING 86
SWIDTH 384 0
DWIDTH 12 0
BBX 12 22 0 0
BITMAP
630000000009
370000000038
0A0000000064
0A00000000A1
0730000000A0
037000000280
00A000000640
00A000000910
007300000A00
004600002800
000A00006400
000A00009100
00073000A000
000460028000
0000A0064000
0000A0091000
0000820A0000
000046280000
000019640000
00000A910000
000008B00000
000004700000
ENDCHAR
STARTCHAR W
ENCODING 87
SWIDTH 534 0
DWIDTH 17 0
BBX 15 22 1 0
BITMAP
8200000000000190
7300000000000280
6400000000000370
5500000000000460
4600000000000550
3700000000000640
2800000000000730
1900004C50000820
0A0000A1A0000910
0A0000A0A0000A00
0A0000A0A0000A00
0A000091A0000A00
0A00006770000A00
0A00001E20000A00
0910000D10000A00
0820006880001900
073001A092002800
06400A201A003700
0550760005804600
0464900000855500
03AA00000009A400
01C100000000B200
ENDCHAR
STARTCHAR X
ENCODING 88
SWIDTH 318 0
DWIDTH 10 0
BBX 10 22 0 0
BITMAP
0900000072
09100000A0
0470000460
00A0000910
0073001900
0029006400
000A00A000
0005538000
0000A82000
00009A0000
0000680000
0000AB0000
0002964000
000831A000
000B009100
0046004700
00A1000B00
0190000740
0740000190
0A000000A1
3700000046
8100000009
ENDCHAR
STARTCHAR Y
ENCODING 89
SWIDTH 370 0
DWIDTH 12 0
BBX 12 22 0 0
BITMAP
820000000046
3800000000A1
0A1000000280
046000000920
00B000001A00
006500007300
000A0000A000
000830065000
0001A00B0000
000092470000
000038A10000
00000A800000
000007400000
000007400000
000007400000
000007400000
000007400000
000007400000
000007400000
000007400000
000007400000
000006300000
ENDCHAR
STARTCHAR Z
ENCODING 90
SWIDTH 309 0
DWIDTH 10 0
BBX 10 22 0 0
BITMAP
1BBBBBBBE0
0000000190
0000000640
0000000A00
0000002800
0000007300
000000A000
0000046000
0000091000
0000190000
0000640000
0000A00000
0002800000
0007200000
000A000000
0046000000
0091000000
0190000000
0640000000
0A00000000
2800000000
6CBBBBBBB4
ENDCHAR
STARTCHAR bracketleft
ENCODING 91
SWIDTH 193 0
DWIDTH 6 0
BBX 6 26 1 -2
BITMAP
1CBBB1
190000
190000
190000
190000
190000
190000
190000
190000
190000
190000
190000
190000
190000
190000
190000
190000
190000
190000
190000
190000
190000
190000
190000
190000
1CBBB1
ENDCHAR
STARTCHAR backslash
ENCODING 92
SWIDTH 292 0
DWIDTH 9 0
BBX 10 26 0 -2
BITMAP
4000000000
9100000000
4600000000
0A00000000
0910000000
0460000000
00A0000000
0091000000
0046000000
000A000000
0009200000
0004600000
0000A00000
0000920000
0000470000
00000A0000
0000092000
0000047000
000000A000
0000009200
0000004700
0000000A00
0000000920
0000000470
00000000A0
0000000081
ENDCHAR
STARTCHAR bracketright
ENCODING 93
SWIDTH 193 0
DWIDTH 6 0
BBX 5 26 0 -2
BITMAP
ABBC30
000640
000640
000640
000640
000640
000640
000640
000640
000640
000640
000640
000640
000640
000640
000640
000640
000640
000640
000640
000640
000640
000640
000640
000640
ABBC30
ENDCHAR
STARTCHAR asciicircum
ENCODING 94
SWIDTH 416 0
DWIDTH 13 0
BBX 13 12 0 10
BITMAP
000000C3000000
0000058A000000
00000B09200000
00005602A00000
0000B000920000
00056000290000
000B0000092000
00560000029000
00B00000009200
05600000002900
0B000000000920
36000000000280
ENDCHAR
STARTCHAR underscore
ENCODING 95
SWIDTH 556 0
DWIDTH 18 0
BBX 16 1 1 -1
BITMAP
7BBBBBBBBBBBBBB5
ENDCHAR
STARTCHAR grave
ENCODING 96
SWIDTH 201 0
DWIDTH 6 0
BBX 3 4 2 17
BITMAP
7000
9300
1B00
0550
ENDCHAR
STARTCHAR a
ENCODING 97
SWIDTH 315 0
DWIDTH 10 0
BBX 9 15 1 0
BITMAP
019BC70000
0B400A3000
3400037000
0000029000
0000019000
0000019000
0000069000
0018A69000
05A3019000
4800019000
A000019000
A000019000
B000049000
A300799000
2ABB50BC20
ENDCHAR
STARTCHAR b
ENCODING 98
SWIDTH 298 0
DWIDTH 10 0
BBX 8 22 1 0
BITMAP
18000000
19000000
19000000
19000000
19000000
19000000
19000000
197CC400
1D600B20
1B000380
190000B0
190000A0
19000082
19000073
19000074
19000073
19000082
190000A0
190000B0
1A000380
1E500B20
187CB400
ENDCHAR
STARTCHAR c
ENCODING 99
SWIDTH 275 0
DWIDTH 9 0
BBX 7 15 1 0
BITMAP
006CC500
05900A30
0B1001A0
38000030
74000000
92000000
A0000000
B0000000
A0000000
92000000
74000000
38000040
0B1001A0
05900A30
006CC500
ENDCHAR
STARTCHAR d
ENCODING 100
SWIDTH 298 0
DWIDTH 10 0
BBX 7 22 1 0
BITMAP
00000190
00000190
00000190
00000190
00000190
00000190
00000190
009BB390
08501A90
1A000390
56000190
73000190
91000190
A0000190
B0000190
A0000190
91000190
73000190
56000190
1A000290
08501A90
009BB390
ENDCHAR
STARTCHAR e
ENCODING 101
SWIDTH 285 0
DWIDTH 9 0
BBX 8 15 1 0
BITMAP
006BB400
05900B20
0C100380
390000B0
750000A0
92000092
ABBBBBC1
B0000000
A0000000
91000000
64000000
38000030
0B0000B0
05900850
006BC700
ENDCHAR
STARTCHAR f
ENCODING 102
SWIDTH 178 0
DWIDTH 6 0
BBX 8 22 0 0
BITMAP
00007BB4
000A5000
00470000
00820000
00910000
00910000
00910000
ABECB700
00910000
00910000
00910000
00910000
00910000
00910000
00910000
00910000
00910000
00910000
00910000
00910000
00910000
00810000
ENDCHAR
STARTCHAR g
ENCODING 103
SWIDTH 302 0
DWIDTH 10 0
BBX 11 23 -1 -6
BITMAP
000000005000
000000048000
00008CBB2000
0007700A4000
000B0001B000
00470000A100
006500008300
007400007300
006500008200
00380000B000
000C0002A000
0006801B3000
0003CDB40000
004910000000
007400000000
001A84100000
005026998100
086000002A20
1A0000000190
2900000000B0
0B0000000390
04B300005C20
0029CCBB7100
ENDCHAR
STARTCHAR h
ENCODING 104
SWIDTH 307 0
DWIDTH 10 0
BBX 8 22 1 0
BITMAP
18000000
19000000
19000000
19000000
19000000
19000000
19000000
193BBB30
1B9101B0
1D000092
19000073
19000073
19000073
19000073
19000073
19000073
19000073
19000073
19000073
19000073
19000073
18000063
ENDCHAR
STARTCHAR i
ENCODING 105
SWIDTH 141 0
DWIDTH 5 0
BBX 2 21 1 0
BITMAP
18
19
19
18
00
00
18
19
19
19
19
19
19
19
19
19
19
19
19
19
18
ENDCHAR
STARTCHAR j
ENCODING 106
SWIDTH 141 0
DWIDTH 5 0
BBX 6 27 -3 -6
BITMAP
000018
000019
000019
000018
000000
000000
000018
000019
000019
000019
000019
000019
000019
000019
000019
000019
000019
000019
000019
000019
000019
000019
000029
000037
000093
000690
4BB600
ENDCHAR
STARTCHAR k
ENCODING 107
SWIDTH 287 0
DWIDTH 9 0
BBX 8 22 1 0
BITMAP
18000000
19000000
19000000
19000000
19000000
19000000
19000000
19000071
19000480
19002B00
1900B200
19076000
194D3000
1AB29000
1E20A000
19006500
19001A00
19000A10
19000560
190000A0
19000092
18000036
ENDCHAR
STARTCHAR l
ENCODING 108
SWIDTH 141 0
DWIDTH 5 0
BBX 2 22 1 0
BITMAP
18
19
19
19
19
19
19
19
19
19
19
19
19
19
19
19
19
19
19
19
19
18
ENDCHAR
STARTCHAR m
ENCODING 109
SWIDTH 407 0
DWIDTH 13 0
BBX 11 15 1 0
BITMAP
1D5000002A60
19890005B660
1905A0690460
19005B900460
19000D300460
19003A800460
190064A00460
190083A00460
190065B00460
19001B400460
190000000460
190000000460
190000000460
190000000460
180000000360
ENDCHAR
STARTCHAR n
ENCODING 110
SWIDTH 307 0
DWIDTH 10 0
BBX 8 15 1 0
BITMAP
183BBB30
1B9101B0
1D000092
19000073
19000073
19000073
19000073
19000073
19000073
19000073
19000073
19000073
19000073
19000073
18000063
ENDCHAR
STARTCHAR o
ENCODING 111
SWIDTH 309 0
DWIDTH 10 0
BBX 8 15 1 0
BITMAP
006CC500
05900A30
0B1001A0
380000A1
74000065
92000037
A0000028
B0000029
A0000028
92000037
74000064
380000A1
0B1001A0
05900A30
006CB500
ENDCHAR
STARTCHAR p
ENCODING 112
SWIDTH 299 0
DWIDTH 10 0
BBX 9 23 0 -6
BITMAP
0040000000
0190000000
01DBBB4000
4BA001B200
2190002900
0190000B00
0190000910
0190000830
0190000740
0190000640
0190000740
0190000830
0190000A10
0190000B00
01B0002800
01E600A200
0197CC4000
0190000000
0190000000
0190000000
0190000000
0190000000
0190000000
ENDCHAR
STARTCHAR q
ENCODING 113
SWIDTH 286 0
DWIDTH 9 0
BBX 9 21 1 -6
BITMAP
009BB39000
08501A9000
1A00039000
5600019000
7300019000
9100019000
A000019000
B000019000
A000019000
9100019000
7300019000
5600019000
1A00029000
08501A9000
009BB49000
0000019000
0000019000
0000019000
0000019000
000000B000
0000006C20
ENDCHAR
STARTCHAR r
ENCODING 114
SWIDTH 277 0
DWIDTH 9 0
BBX 8 15 1 0
BITMAP
183BBB20
1B9101B0
1C000091
19000073
19000000
19000000
19000000
19000000
19000000
19000000
19000000
19000000
19000000
19000000
18000000
ENDCHAR
STARTCHAR s
ENCODING 115
SWIDTH 257 0
DWIDTH 8 0
BBX 8 15 0 0
BITMAP
006BBA10
049003A0
09100040
0A000000
07300000
01A00000
00391000
0002A200
00001A20
000001A0
00000074
12000056
1A000074
086002B0
008BBA20
ENDCHAR
STARTCHAR t
ENCODING 116
SWIDTH 207 0
DWIDTH 7 0
BBX 6 19 0 0
BITMAP
005500
005500
005500
005500
9BDDB8
005500
005500
005500
005500
005500
005500
005500
005500
005500
005500
005500
004600
002A00
0006B7
ENDCHAR
STARTCHAR u
ENCODING 117
SWIDTH 307 0
DWIDTH 10 0
BBX 7 15 1 0
BITMAP
64000090
640000A0
640000A0
640000A0
640000A0
640000A0
640000A0
640000A0
640000A0
640000A0
640000A0
640000A0
560001C0
1B001AB0
05CBA290
ENDCHAR
STARTCHAR v
ENCODING 118
SWIDTH 285 0
DWIDTH 9 0
BBX 9 15 0 0
BITMAP
4500000360
1900000730
0A00000A00
0910000A00
0550003700
0190007300
00A000A000
009100A000
0055037000
0019073000
000A0A0000
00091A0000
0005870000
0001E30000
0000B00000
ENDCHAR
STARTCHAR w
ENCODING 119
SWIDTH 396 0
DWIDTH 13 0
BBX 11 15 1 0
BITMAP
900000000090
A00000000190
A00000000280
A0004B100470
A000A5600550
9100A2800640
8300A3700830
6400A6500910
55006D100A00
47003D000A00
2800A9600B00
190570B20B00
0B2A002A1A00
0BB10005A900
0B3000008700
ENDCHAR
STARTCHAR x
ENCODING 120
SWIDTH 244 0
DWIDTH 8 0
BBX 8 15 0 0
BITMAP
0A000190
08300650
03800A10
00B02900
00647300
0019A000
000A7000
00096000
001AA000
00658300
00A02800
02900A00
08300650
0B0001A0
46000091
ENDCHAR
STARTCHAR y
ENCODING 121
SWIDTH 285 0
DWIDTH 9 0
BBX 9 21 0 -6
BITMAP
4500000360
1900000730
0A00000A00
0910000A00
0550003700
0190007300
00A000A000
009100A000
0055037000
0019073000
000A0A0000
00091A0000
0005870000
0002E30000
0000C00000
0000A00000
0003700000
0007400000
000A000000
0058000000
7B80000000
ENDCHAR
STARTCHAR z
ENCODING 122
SWIDTH 233 0
DWIDTH 7 0
BBX 7 15 0 0
BITMAP
0BBBBCA0
00000550
00000900
00002800
00007300
0000A000
00046000
00091000
00190000
00640000
00A00000
03700000
09100000
1A000000
4DBBBB80
ENDCHAR
STARTCHAR braceleft
ENCODING 123
SWIDTH 306 0
DWIDTH 10 0
BBX 10 26 0 -2
BITMAP
0000008BB8
0000048000
0000073000
0000073000
0000073000
0000073000
0000073000
0000073000
0000073000
0000073000
0000073000
0000092000
1ACB4A0000
5801D80000
1ACB4A0000
0000092000
0000073000
0000073000
0000073000
0000073000
0000073000
0000073000
0000073000
0000073000
0000057000
0000008BB8
ENDCHAR
STARTCHAR bar
ENCODING 124
SWIDTH 141 0
DWIDTH 5 0
BBX 2 26 1 -2
BITMAP
04
19
19
19
19
19
19
19
19
19
19
19
19
19
19
19
19
19
19
19
19
19
19
19
19
18
ENDCHAR
STARTCHAR braceright
ENCODING 125
SWIDTH 306 0
DWIDTH 10 0
BBX 10 26 0 -2
BITMAP
ABB6000000
000A100000
0007400000
0006400000
0006400000
0006400000
0006400000
0006400000
0006400000
0006400000
0006400000
0005600000
000196BC80
0000BB00A1
000196BC80
0005600000
0006400000
0006400000
0006400000
0006400000
0006400000
0006400000
0006400000
0006400000
000A200000
ABB6000000
ENDCHAR
STARTCHAR asciitilde
ENCODING 126
SWIDTH 433 0
DWIDTH 14 0
BBX 12 3 1 7
BITMAP
04BB82000036
4A104BA401B2
71000029CB30
ENDCHAR
STARTCHAR uni00A0
ENCODING 160
SWIDTH 240 0
DWIDTH 8 0
BBX 1 1 0 0
BITMAP
00
ENDCHAR
STARTCHAR exclamdown
ENCODING 161
SWIDTH 141 0
DWIDTH 5 0
BBX 2 22 1 -4
BITMAP
18
19
18
00
00
03
19
19
19
19
19
19
19
19
19
19
19
19
19
19
19
18
ENDCHAR
STARTCHAR cent
ENCODING 162
SWIDTH 275 0
DWIDTH 9 0
BBX 7 21 1 -3
BITMAP
00031000
00082000
00082000
00095000
00AC9900
08482560
1B0820A0
56082000
83082000
A1082000
A0082000
A0082000
91082000
74082000
38082040
0B0821A0
04883A30
005DB400
00082000
00082000
00072000
ENDCHAR
STARTCHAR sterling
ENCODING 163
SWIDTH 331 0
DWIDTH 11 0
BBX 10 22 0 0
BITMAP
0029CBB600
02C4000770
0A20000092
0B00000011
1900000000
0A00000000
0A00000000
0740000000
00B0000000
0066000000
000B100000
0BBDDBBB10
0001A00000
0000B00000
0000A00000
0000A00000
0003800000
0008300000
002A000000
00A2000000
0940000000
5EBBBBBBBA
ENDCHAR
STARTCHAR currency
ENCODING 164
SWIDTH 506 0
DWIDTH 16 0
BBX 14 13 1 3
BITMAP
48000000000066
06805BBBB60680
006C810006B900
00660000004800
00B00000000910
02800000000550
03700000000460
02900000000650
00B00000000A10
00680000005800
006B920018B900
06803ABBA50590
47000000000056
ENDCHAR
STARTCHAR yen
ENCODING 165
SWIDTH 370 0
DWIDTH 12 0
BBX 12 22 0 0
BITMAP
820000000046
3800000000A1
0A0000000290
056000000820
00B000001A00
007400007400
001A0000B000
000920056000
0002900A1000
0000A1380000
000047920000
00000BA00000
000007400000
000007400000
02BBBDCBBB00
000007400000
000007400000
02BBBDCBBB00
000007400000
000007400000
000007400000
000006300000
ENDCHAR
STARTCHAR brokenbar
ENCODING 166
SWIDTH 141 0
DWIDTH 5 0
BBX 2 26 1 -2
BITMAP
04
19
19
19
19
19
19
19
19
19
18
00
00
00
00
18
19
19
19
19
19
19
19
19
19
18
ENDCHAR
STARTCHAR section
ENCODING 167
SWIDTH 303 0
DWIDTH 10 0
BBX 9 27 0 -3
BITMAP
0029CB7100
03C4005A00
0B10000660
0A00000050
1A00000000
0B00000000
0840000000
01B4000000
001A700000
0002BC2000
008611A300
0480001B00
0920000740
0B00000560
0920000740
04A0001C10
008A23B400
0006E82000
00002B6000
0000008700
0000000A30
0000000380
00000000A0
33000001A0
1A00000660
0691016B00
004BBC7100
ENDCHAR
STARTCHAR dieresis
ENCODING 168
SWIDTH 241 0
DWIDTH 8 0
BBX 5 4 1 17
BITMAP
180090
1900A0
1900A0
180090
ENDCHAR
STARTCHAR copyright
ENCODING 169
SWIDTH 772 0
DWIDTH 25 0
BBX 23 22 1 0
BITMAP
000000027AAAA96100000000
000004A84000015A92000000
00008810000000002A500000
000A50000000000000960000
00850000019A930000094000
038000001B2014000000B100
0A1000007400000000005700
29000000B000000000000B00
64000000A000000000000920
920000029000000000000640
A00000038000000000000560
A00000038000000000000560
920000029000000000000640
65000000A000000000000920
29000000B000000000000B00
0B1000007400000000005700
039000001B2014000000B000
00850000019A930000094000
000A50000000000000960000
00008810000000003A500000
000003A84000015A92000000
000000027AAAA96100000000
ENDCHAR
STARTCHAR ordfeminine
ENCODING 170
SWIDTH 231 0
DWIDTH 7 0
BBX 7 10 0 12
BITMAP
02BBA000
08207500
00004600
00004700
0004B700
02A75700
0A204700
28004700
2902B700
08CB3C60
ENDCHAR
STARTCHAR guillemotleft
ENCODING 171
SWIDTH 403 0
DWIDTH 13 0
BBX 11 13 1 3
BITMAP
000001000010
00001B100760
0001B2006800
000A30049000
0094003A0000
085002A10000
76001B100000
59001B200000
067001B10000
0086002B1000
00095003A000
0000A3004A00
00000A100560
ENDCHAR
STARTCHAR logicalnot
ENCODING 172
SWIDTH 557 0
DWIDTH 18 0
BBX 16 6 1 4
BITMAP
7BBBBBBBBBBBBBC7
0000000000000028
0000000000000028
0000000000000028
0000000000000028
0000000000000002
ENDCHAR
STARTCHAR uni00AD
ENCODING 173
SWIDTH 286 0
DWIDTH 9 0
BBX 7 1 1 9
BITMAP
7BBBBB90
ENDCHAR
STARTCHAR registered
ENCODING 174
SWIDTH 772 0
DWIDTH 25 0
BBX 23 22 1 0
BITMAP
000000037BBBBA6200000000
000004B94100026A92000000
00008910000000003B500000
000A50000000000000970000
008500002CBC8000000A5000
03900000380076000000B100
0B10000038000A0000005700
2900000038000A0000000B00
6500000038000B0000000920
9200000038002B0000000640
A00000003801B40000000560
A00000003DBBC00000000560
920000003800570000000640
6500000038000B0000000920
290000003800091000000B00
0B1000003800055000005700
04900000380001900000B000
00950000270000A0000A4000
000A50000000000000960000
00009910000000003B500000
000004B94100016AA2000000
000000037BBBBA6200000000
ENDCHAR
STARTCHAR macron
ENCODING 175
SWIDTH 266 0
DWIDTH 9 0
BBX 5 1 2 18
BITMAP
BBBB60
ENDCHAR
STARTCHAR degree
ENCODING 176
SWIDTH 350 0
DWIDTH 11 0
BBX 9 8 1 14
BITMAP
004BBB6000
07A1018900
2B00000840
5600000380
5600000380
1B00000940
06A1018900
004BBB6000
ENDCHAR
STARTCHAR plusminus
ENCODING 177
SWIDTH 577 0
DWIDTH 18 0
BBX 16 15 1 0
BITMAP
0000000180000000
0000000280000000
0000000280000000
0000000280000000
0000000280000000
0000000280000000
4BBBBBBCDBBBBBB9
0000000280000000
0000000280000000
0000000280000000
0000000280000000
0000000280000000
0000000030000000
0000000000000000
4BBBBBBBBBBBBBB9
ENDCHAR
STARTCHAR uni00B2
ENCODING 178
SWIDTH 207 0
DWIDTH 7 0
BBX 5 10 1 12
BITMAP
2BBA00
930750
100470
000640
001A00
008300
056000
290000
910000
DCCC70
ENDCHAR
STARTCHAR uni00B3
ENCODING 179
SWIDTH 214 0
DWIDTH 7 0
BBX 5 10 1 12
BITMAP
1BC700
630A10
000820
001B00
04E600
000A30
000370
000370
800940
5CC700
ENDCHAR
STARTCHAR acute
ENCODING 180
SWIDTH 201 0
DWIDTH 6 0
BBX 3 4 2 17
BITMAP
0340
0B10
6600
A000
ENDCHAR
STARTCHAR uni00B5
ENCODING 181
SWIDTH 335 0
DWIDTH 11 0
BBX 9 21 1 -6
BITMAP
1800006300
1900007300
1900007300
1900007300
1900007300
1900007300
1900007300
1900007300
1900007300
1900007300
1900007300
1900007300
1900008300
1D3005C400
1A9BB73CA0
1900000000
1900000000
1900000000
1900000000
1900000000
1800000000
ENDCHAR
STARTCHAR paragraph
ENCODING 182
SWIDTH 471 0
DWIDTH 15 0
BBX 13 22 1 0
BITMAP
0006CEFFE00720
009FFFFFE00820
05FFFFFFE00820
0CFFFFFFE00820
0FFFFFFFE00820
1FFFFFFFE00820
0FFFFFFFE00820
0CFFFFFFE00820
07FFFFFFE00820
00BFFFFFE00820
0018EFFFE00820
00000233B00820
00000000A00820
00000000A00820
00000000A00820
00000000A00820
00000000A00820
00000000A00820
00000000A00820
00000000A00820
00000000A00820
00000000900720
ENDCHAR
STARTCHAR periodcentered
ENCODING 183
SWIDTH 181 0
DWIDTH 6 0
BBX 2 3 2 8
BITMAP
63
74
63
ENDCHAR
STARTCHAR cedilla
ENCODING 184
SWIDTH 232 0
DWIDTH 7 0
BBX 4 6 2 -5
BITMAP
0100
1A00
7DA1
3056
4056
7B90
ENDCHAR
STARTCHAR uni00B9
ENCODING 185
SWIDTH 176 0
DWIDTH 6 0
BBX 6 10 0 12
BITMAP
07C400
145500
005500
005500
005500
005500
005500
005500
005500
1BDDB1
ENDCHAR
STARTCHAR ordmasculine
ENCODING 186
SWIDTH 201 0
DWIDTH 6 0
BBX 6 10 0 12
BITMAP
01BC40
0830B0
0A0064
180037
270019
270019
180037
0A0064
0830B0
01BC50
ENDCHAR
STARTCHAR guillemotright
ENCODING 187
SWIDTH 403 0
DWIDTH 13 0
BBX 11 13 1 3
BITMAP
740029000000
0A3005900000
01B200670000
001B10086000
0002B1009500
00003A000A40
00002B000850
0001B2006700
001A20058000
00A300490000
094003A00000
76001A100000
100001000000
ENDCHAR
STARTCHAR onequarter
ENCODING 188
SWIDTH 527 0
DWIDTH 17 0
BBX 15 22 1 0
BITMAP
18D2000000004500
238200000000B100
0082000000047000
00820000000B1000
0082000000470000
0082000000A10000
0082000004700000
008200000A100000
0082000047000000
4CDCA000A1000000
0000000470000000
0000000A10000000
0000004700072000
000000A1000B0000
0000047000560000
00000A1000A28000
0000380002919000
0000A10008219000
000380001A019000
000A10004BAADA20
0038000000019000
0081000000018000
ENDCHAR
STARTCHAR onehalf
ENCODING 189
SWIDTH 540 0
DWIDTH 17 0
BBX 15 22 1 0
BITMAP
18D2000000004500
238200000000B100
0082000000047000
00820000000B1000
0082000000470000
0082000000A10000
0082000004700000
008200000A100000
0082000047000000
4CDCA000A1000000
0000000470000000
0000000A10000000
00000047001BBA00
000000A100930650
0000047000100370
00000A1000000640
0000380000001A00
0000A10000008300
0003800000056000
000A100000290000
0038000000910000
0081000000DCCC70
ENDCHAR
STARTCHAR threequarters
ENCODING 190
SWIDTH 517 0
DWIDTH 17 0
BBX 15 22 1 0
BITMAP
1BC7000000004500
630A10000000B100
0008200000047000
001B0000000B1000
04E6000000470000
000A300000A10000
0003700004700000
000370000A100000
8009400047000000
5CC70000A1000000
0000000470000000
0000000A10000000
0000004700037000
000000A100092000
00000470001A0000
00000A1000659000
0000380000B0A000
0000A1000470A000
000380000A10A000
000A10000CAADA50
003800000000A000
0081000000009000
ENDCHAR
STARTCHAR questiondown
ENCODING 191
SWIDTH 300 0
DWIDTH 10 0
BBX 8 22 1 -4
BITMAP
00009000
0000A000
00009000
00000000
00000000
00001000
0001B000
00007500
00003700
00006500
0000B100
00066000
001A0000
00A20000
03900000
0A100000
1A000000
38000000
38000000
1B000038
096002B2
019CBA20
ENDCHAR
STARTCHAR Agrave
ENCODING 192
SWIDTH 414 0
DWIDTH 13 0
BBX 13 26 0 0
BITMAP
00004700000000
00000A20000000
000002A0000000
00000010000000
000000B1000000
000001F4000000
00000598000000
0000092B000000
00000B09100000
00002906500000
00006502A00000
0000A100B00000
0000B000930000
00038000570000
000740001B0000
000B10000B0000
001B0000084000
005DBBBBBC8000
0093000000C000
00C0000000B100
02A00000006500
06500000002900
0A100000000B00
0B000000000830
38000000000470
63000000000090
ENDCHAR
STARTCHAR Aacute
ENCODING 193
SWIDTH 414 0
DWIDTH 13 0
BBX 13 26 0 0
BITMAP
00000002900000
0000000A200000
00000048000000
00000010000000
000000B1000000
000001F4000000
00000598000000
0000092B000000
00000B09100000
00002906500000
00006502A00000
0000A100B00000
0000B000930000
00038000570000
000740001B0000
000B10000B0000
001B0000084000
005DBBBBBC8000
0093000000C000
00C0000000B100
02A00000006500
06500000002900
0A100000000B00
0B000000000830
38000000000470
63000000000090
ENDCHAR
STARTCHAR Acircumflex
ENCODING 194
SWIDTH 414 0
DWIDTH 13 0
BBX 13 27 0 0
BITMAP
00000060000000
000005A9000000
00002A07500000
00005100600000
00000000000000
000000B1000000
000001F4000000
00000598000000
0000092B000000
00000B09100000
00002906500000
00006502A00000
0000A100B00000
0000B000930000
00038000570000
000740001B0000
000B10000B0000
001B0000084000
005DBBBBBC8000
0093000000C000
00C0000000B100
02A00000006500
06500000002900
0A100000000B00
0B000000000830
38000000000470
63000000000090
ENDCHAR
STARTCHAR Atilde
ENCODING 195
SWIDTH 414 0
DWIDTH 13 0
BBX 13 25 0 0
BITMAP
00008B70540000
0001806BA10000
00000000000000
000000B1000000
000001F4000000
00000598000000
0000092B000000
00000B09100000
00002906500000
00006502A00000
0000A100B00000
0000B000930000
00038000570000
000740001B0000
000B10000B0000
001B0000084000
005DBBBBBC8000
0093000000C000
00C0000000B100
02A00000006500
06500000002900
0A100000000B00
0B000000000830
38000000000470
63000000000090
ENDCHAR
STARTCHAR Adieresis
ENCODING 196
SWIDTH 414 0
DWIDTH 13 0
BBX 13 26 0 0
BITMAP
00002704500000
00003804600000
00002704500000
00000000000000
000000B1000000
000001F4000000
00000598000000
0000092B000000
00000B09100000
00002906500000
00006502A00000
0000A100B00000
0000B000930000
00038000570000
000740001B0000
000B10000B0000
001B0000084000
005DBBBBBC8000
0093000000C000
00C0000000B100
02A00000006500
06500000002900
0A100000000B00
0B000000000830
38000000000470
63000000000090
ENDCHAR
STARTCHAR Aring
ENCODING 197
SWIDTH 414 0
DWIDTH 13 0
BBX 13 27 0 0
BITMAP
000006B8000000
00001906400000
00001A07400000
000006B8000000
00000000000000
000000B1000000
000001F4000000
00000598000000
0000092B000000
00000B09100000
00002906500000
00006502A00000
0000A100B00000
0000B000930000
00038000570000
000740001B0000
000B10000B0000
001B0000084000
005DBBBBBC8000
0093000000C000
00C0000000B100
02A00000006500
06500000002900
0A100000000B00
0B000000000830
38000000000470
63000000000090
ENDCHAR
STARTCHAR AE
ENCODING 198
SWIDTH 545 0
DWIDTH 17 0
BBX 17 22 0 0
BITMAP
0000000009CBBBBB10
000000001F20000000
000000007C20000000
00000000B820000000
000000057820000000
0000000B1820000000
0000002A0820000000
000000940820000000
000001C00820000000
000006600820000000
00000C1008CBBBB900
000049000820000000
0000A3000820000000
0002EBBBBD20000000
000850000820000000
000C00000820000000
005700000820000000
00B100000820000000
039000000820000000
092000000820000000
1A0000000820000000
6400000008CBBBBB10
ENDCHAR
STARTCHAR Ccedilla
ENCODING 199
SWIDTH 366 0
DWIDTH 12 0
BBX 10 27 1 -5
BITMAP
0002ABCC70
003B300065
01C1000000
0750000000
0B00000000
2900000000
5600000000
7300000000
9100000000
A100000000
A000000000
A000000000
A100000000
9100000000
7300000000
5500000000
2900000000
0B00000000
0750000000
01C1000000
004B300066
0002ACDC70
0000073000
00001EB500
0000120A00
0000310B00
00002BB400
ENDCHAR
STARTCHAR Egrave
ENCODING 200
SWIDTH 309 0
DWIDTH 10 0
BBX 8 26 1 0
BITMAP
00820000
002A0000
00075000
00001000
1DBBBBB6
19000000
19000000
19000000
19000000
19000000
19000000
19000000
19000000
19000000
1EBBBBB2
19000000
19000000
19000000
19000000
19000000
19000000
19000000
19000000
19000000
19000000
1DBBBBB6
ENDCHAR
STARTCHAR Eacute
ENCODING 201
SWIDTH 309 0
DWIDTH 10 0
BBX 8 26 1 0
BITMAP
00000640
00001B00
00009300
00001000
1DBBBBB6
19000000
19000000
19000000
19000000
19000000
19000000
19000000
19000000
19000000
1EBBBBB2
19000000
19000000
19000000
19000000
19000000
19000000
19000000
19000000
19000000
19000000
1DBBBBB6
ENDCHAR
STARTCHAR Ecircumflex
ENCODING 202
SWIDTH 309 0
DWIDTH 10 0
BBX 8 27 1 0
BITMAP
00015000
000AA400
00660B10
00600240
00000000
1DBBBBB6
19000000
19000000
19000000
19000000
19000000
19000000
19000000
19000000
19000000
1EBBBBB2
19000000
19000000
19000000
19000000
19000000
19000000
19000000
19000000
19000000
19000000
1DBBBBB6
ENDCHAR
STARTCHAR Edieresis
ENCODING 203
SWIDTH 309 0
DWIDTH 10 0
BBX 8 26 1 0
BITMAP
00720910
00820910
00720910
00000000
1DBBBBB6
19000000
19000000
19000000
19000000
19000000
19000000
19000000
19000000
19000000
1EBBBBB2
19000000
19000000
19000000
19000000
19000000
19000000
19000000
19000000
19000000
19000000
1DBBBBB6
ENDCHAR
STARTCHAR Igrave
ENCODING 204
SWIDTH 141 0
DWIDTH 5 0
BBX 3 26 0 0
BITMAP
8200
2A00
0750
0010
0180
0190
0190
0190
0190
0190
0190
0190
0190
0190
0190
0190
0190
0190
0190
0190
0190
0190
0190
0190
0190
0180
ENDCHAR
STARTCHAR Iacute
ENCODING 205
SWIDTH 141 0
DWIDTH 5 0
BBX 4 26 1 0
BITMAP
0064
01B0
0930
0100
1800
1900
1900
1900
1900
1900
1900
1900
1900
1900
1900
1900
1900
1900
1900
1900
1900
1900
1900
1900
1900
1800
ENDCHAR
STARTCHAR Icircumflex
ENCODING 206
SWIDTH 141 0
DWIDTH 5 0
BBX 5 27 0 0
BITMAP
015000
0AA400
760B10
600240
000000
018000
019000
019000
019000
019000
019000
019000
019000
019000
019000
019000
019000
019000
019000
019000
019000
019000
019000
019000
019000
019000
018000
ENDCHAR
STARTCHAR Idieresis
ENCODING 207
SWIDTH 141 0
DWIDTH 5 0
BBX 4 26 0 0
BITMAP
7209
820A
7209
0000
0180
0190
0190
0190
0190
0190
0190
0190
0190
0190
0190
0190
0190
0190
0190
0190
0190
0190
0190
0190
0190
0180
ENDCHAR
STARTCHAR Eth
ENCODING 208
SWIDTH 396 0
DWIDTH 13 0
BBX 12 22 0 0
BITMAP
01DBBBBA2000
01900003B300
019000002B00
019000000740
019000000290
0190000000B0
0190000000A1
019000000083
019000000064
019000000055
019000000056
7CEBBB200056
019000000055
019000000064
019000000083
0190000000A1
0190000000B0
019000000290
019000000840
019000002B00
01900003C300
01DBBBBA2000
ENDCHAR
STARTCHAR Ntilde
ENCODING 209
SWIDTH 422 0
DWIDTH 14 0
BBX 11 25 1 0
BITMAP
0007B8136000
000904BB1000
000000000000
1A0000000180
1F2000000190
1D8000000190
19C000000190
197600000190
191B00000190
190930000190
190290000190
1900B1000190
190057000190
19000B000190
190007500190
190001A00190
190000920190
190000380190
1900000A1190
190000056190
19000000B190
190000007590
190000001B90
190000000990
180000000380
ENDCHAR
STARTCHAR Ograve
ENCODING 210
SWIDTH 446 0
DWIDTH 14 0
BBX 12 26 1 0
BITMAP
000091000000
000039000000
000009300000
000000100000
0003ABBB5000
004B30019700
01C100000A30
0750000001B0
0B00000000A2
290000000056
560000000019
73000000000B
91000000000B
A1000000000B
A0000000000B
A0000000000B
A1000000000B
91000000000B
73000000000B
560000000019
290000000056
0B00000000A2
0750000001B0
01C100000A30
004B20019700
0003ABBB5000
ENDCHAR
STARTCHAR Oacute
ENCODING 211
SWIDTH 446 0
DWIDTH 14 0
BBX 12 26 1 0
BITMAP
000000082000
000000390000
000000A10000
000000100000
0003ABBB5000
004B30019700
01C100000A30
0750000001B0
0B00000000A2
290000000056
560000000019
73000000000B
91000000000B
A1000000000B
A0000000000B
A0000000000B
A1000000000B
91000000000B
73000000000B
560000000019
290000000056
0B00000000A2
0750000001B0
01C100000A30
004B20019700
0003ABBB5000
ENDCHAR
STARTCHAR Ocircumflex
ENCODING 212
SWIDTH 446 0
DWIDTH 14 0
BBX 12 27 1 0
BITMAP
000002400000
00000BA20000
0000941B0000
000060043000
000000000000
0003ABBB5000
004B30019700
01C100000A30
0750000001B0
0B00000000A2
290000000056
560000000019
73000000000B
91000000000B
A1000000000B
A0000000000B
A0000000000B
A1000000000B
91000000000B
73000000000B
560000000019
290000000056
0B00000000A2
0750000001B0
01C100000A30
004B20019700
0003ABBB5000
ENDCHAR
STARTCHAR Otilde
ENCODING 213
SWIDTH 446 0
DWIDTH 14 0
BBX 12 25 1 0
BITMAP
0002BA309000
0007229C5000
000000000000
0003ABBB5000
004B30019700
01C100000A30
0750000001B0
0B00000000A2
290000000056
560000000019
73000000000B
91000000000B
A1000000000B
A0000000000B
A0000000000B
A1000000000B
91000000000B
73000000000B
560000000019
290000000056
0B00000000A2
0750000001B0
01C100000A30
004B20019700
0003ABBB5000
ENDCHAR
STARTCHAR Odieresis
ENCODING 214
SWIDTH 446 0
DWIDTH 14 0
BBX 12 26 1 0
BITMAP
000090090000
0000A00A0000
000090090000
000000000000
0003ABBB5000
004B30019700
01C100000A30
0750000001B0
0B00000000A2
290000000056
560000000019
73000000000B
91000000000B
A1000000000B
A0000000000B
A0000000000B
A1000000000B
91000000000B
73000000000B
560000000019
290000000056
0B00000000A2
0750000001B0
01C100000A30
004B20019700
0003ABBB5000
ENDCHAR
STARTCHAR multiply
ENCODING 215
SWIDTH 445 0
DWIDTH 14 0
BBX 12 12 1 2
BITMAP
210000000001
4B10000000A3
04B100000A40
004B1000A400
0004B10A4000
00004BA40000
00000BC10000
0000A44B1000
000A4004B100
00A400004B10
0A40000004B1
340000000045
ENDCHAR
STARTCHAR Oslash
ENCODING 216
SWIDTH 446 0
DWIDTH 14 0
BBX 12 22 1 0
BITMAP
0003ABBB4063
004B3001A5B0
01C100000B70
075000000AA0
0C00000038A1
290000009155
560000029029
73000008200B
91000019000B
A1000073000A
A00001A0000B
A0000640000B
A1000A00000B
91005500000B
7300A000000B
560470000019
290A10000056
0B3800000092
07C1000001B0
03D100000A40
095B20019700
0902ABBB5000
ENDCHAR
STARTCHAR Ugrave
ENCODING 217
SWIDTH 412 0
DWIDTH 13 0
BBX 11 26 1 0
BITMAP
000460000000
0000A2000000
000029000000
000001000000
640000000180
640000000190
640000000190
640000000190
640000000190
640000000190
640000000190
640000000190
640000000190
640000000190
640000000190
640000000190
640000000190
640000000190
640000000190
640000000190
640000000190
550000000280
370000000560
0B1000000B10
04B30002A600
003ACBBB4000
ENDCHAR
STARTCHAR Uacute
ENCODING 218
SWIDTH 412 0
DWIDTH 13 0
BBX 11 26 1 0
BITMAP
000000280000
000000A20000
000005700000
000001000000
640000000180
640000000190
640000000190
640000000190
640000000190
640000000190
640000000190
640000000190
640000000190
640000000190
640000000190
640000000190
640000000190
640000000190
640000000190
640000000190
640000000190
550000000280
370000000560
0B1000000B10
04B30002A600
003ACBBB4000
ENDCHAR
STARTCHAR Ucircumflex
ENCODING 219
SWIDTH 412 0
DWIDTH 13 0
BBX 11 27 1 0
BITMAP
000006000000
00005A800000
0002A0850000
000510060000
000000000000
640000000180
640000000190
640000000190
640000000190
640000000190
640000000190
640000000190
640000000190
640000000190
640000000190
640000000190
640000000190
640000000190
640000000190
640000000190
640000000190
640000000190
550000000280
370000000560
0B1000000B10
04B30002A600
003ACBBB4000
ENDCHAR
STARTCHAR Udieresis
ENCODING 220
SWIDTH 412 0
DWIDTH 13 0
BBX 11 26 1 0
BITMAP
000370450000
000370550000
000370450000
000000000000
640000000180
640000000190
640000000190
640000000190
640000000190
640000000190
640000000190
640000000190
640000000190
640000000190
640000000190
640000000190
640000000190
640000000190
640000000190
640000000190
640000000190
550000000280
370000000560
0B1000000B10
04B30002A600
003ACBBB4000
ENDCHAR
STARTCHAR Yacute
ENCODING 221
SWIDTH 370 0
DWIDTH 12 0
BBX 12 26 0 0
BITMAP
0000000A0000
000000660000
000001B00000
000000100000
820000000046
3800000000A1
0A1000000280
046000000920
00B000001A00
006500007300
000A0000A000
000830065000
0001A00B0000
000092470000
000038A10000
00000A800000
000007400000
000007400000
000007400000
000007400000
000007400000
000007400000
000007400000
000007400000
000007400000
000006300000
ENDCHAR
STARTCHAR Thorn
ENCODING 222
SWIDTH 341 0
DWIDTH 11 0
BBX 9 22 1 0
BITMAP
1800000000
1900000000
1900000000
1900000000
1EBBBB7000
1900006A00
1900000840
19000002A0
19000000B0
19000000B0
19000000B0
19000000B0
1900000480
1900000B10
1A0003B500
1CBBB92000
1900000000
1900000000
1900000000
1900000000
1900000000
1800000000
ENDCHAR
STARTCHAR germandbls
ENCODING 223
SWIDTH 327 0
DWIDTH 10 0
BBX 8 22 1 0
BITMAP
008CC800
06700670
0B0000B0
0A000091
19000082
19000082
19000091
190000B0
192BB7A0
19740C80
192BB591
19000046
19000019
1900000A
1900000A
1900000B
1900000B
19000019
19000056
190000A1
19000770
188BB700
ENDCHAR
STARTCHAR agrave
ENCODING 224
SWIDTH 315 0
DWIDTH 10 0
BBX 9 21 1 0
BITMAP
0070000000
0084000000
001B000000
0005600000
0000000000
0000000000
019BC70000
0B400A3000
3400037000
0000029000
0000019000
0000019000
0000069000
0018A69000
05A3019000
4800019000
A000019000
A000019000
B000049000
A300799000
2ABB50BC20
ENDCHAR
STARTCHAR aacute
ENCODING 225
SWIDTH 315 0
DWIDTH 10 0
BBX 9 21 1 0
BITMAP
0000070000
0000570000
0001B00000
0007400000
0000000000
0000000000
019BC70000
0B400A3000
3400037000
0000029000
0000019000
0000019000
0000069000
0018A69000
05A3019000
4800019000
A000019000
A000019000
B000049000
A300799000
2ABB50BC20
ENDCHAR
STARTCHAR acircumflex
ENCODING 226
SWIDTH 315 0
DWIDTH 10 0
BBX 9 20 1 0
BITMAP
0009700000
0057930000
01B01B0000
0620034000
0000000000
019BC70000
0B400A3000
3400037000
0000029000
0000019000
0000019000
0000069000
0018A69000
05A3019000
4800019000
A000019000
A000019000
B000049000
A300799000
2ABB50BC20
ENDCHAR
STARTCHAR atilde
ENCODING 227
SWIDTH 315 0
DWIDTH 10 0
BBX 9 19 1 0
BITMAP
06C9219000
0903AC4000
0000000000
0000000000
019BC70000
0B400A3000
3400037000
0000029000
0000019000
0000019000
0000069000
0018A69000
05A3019000
4800019000
A000019000
A000019000
B000049000
A300799000
2ABB50BC20
ENDCHAR
STARTCHAR adieresis
ENCODING 228
SWIDTH 315 0
DWIDTH 10 0
BBX 9 21 1 0
BITMAP
0090090000
00A00A0000
00A00A0000
0090090000
0000000000
0000000000
019BC70000
0B400A3000
3400037000
0000029000
0000019000
0000019000
0000069000
0018A69000
05A3019000
4800019000
A000019000
A000019000
B000049000
A300799000
2ABB50BC20
ENDCHAR
STARTCHAR aring
ENCODING 229
SWIDTH 315 0
DWIDTH 10 0
BBX 9 21 1 0
BITMAP
004BB30000
00A01A0000
00A01A0000
004BB30000
0000000000
0000000000
019BC70000
0B400A3000
3400037000
0000029000
0000019000
0000019000
0000069000
0018A69000
05A3019000
4800019000
A000019000
A000019000
B000049000
A300799000
2ABB50BC20
ENDCHAR
STARTCHAR ae
ENCODING 230
SWIDTH 450 0
DWIDTH 14 0
BBX 13 15 1 0
BITMAP
02BBB6019BA000
2B200938305700
41000387000B00
000002E2000820
000002D0000550
000002A0000460
00047BEBBBBC50
06C95490000000
5A000190000000
B10000A0000000
B00000A0000000
A00000A0000220
B00003D5000920
85005A2B104900
1ACC7003BBA100
ENDCHAR
STARTCHAR ccedilla
ENCODING 231
SWIDTH 275 0
DWIDTH 9 0
BBX 7 20 1 -5
BITMAP
006CC500
05900A30
0B1001A0
38000030
74000000
92000000
A0000000
B0000000
A0000000
92000000
74000000
38000040
0B1001A0
05900A30
006CC500
000A1000
003EB200
00211900
00402900
005BB200
ENDCHAR
STARTCHAR egrave
ENCODING 232
SWIDTH 285 0
DWIDTH 9 0
BBX 8 21 1 0
BITMAP
00700000
00840000
001B0000
00056000
00000000
00000000
006BB400
05900B20
0C100380
390000B0
750000A0
92000092
ABBBBBC1
B0000000
A0000000
91000000
64000000
38000030
0B0000B0
05900850
006BC700
ENDCHAR
STARTCHAR eacute
ENCODING 233
SWIDTH 285 0
DWIDTH 9 0
BBX 8 21 1 0
BITMAP
00000700
00005700
0001B000
00074000
00000000
00000000
006BB400
05900B20
0C100380
390000B0
750000A0
92000092
ABBBBBC1
B0000000
A0000000
91000000
64000000
38000030
0B0000B0
05900850
006BC700
ENDCHAR
STARTCHAR ecircumflex
ENCODING 234
SWIDTH 285 0
DWIDTH 9 0
BBX 8 20 1 0
BITMAP
00096000
00579200
02A01B00
06200440
00000000
006BB400
05900B20
0C100380
390000B0
750000A0
92000092
ABBBBBC1
B0000000
A0000000
91000000
64000000
38000030
0B0000B0
05900850
006BC700
ENDCHAR
STARTCHAR edieresis
ENCODING 235
SWIDTH 285 0
DWIDTH 9 0
BBX 8 21 1 0
BITMAP
00900900
01900A00
01900A00
00900900
00000000
00000000
006BB400
05900B20
0C100380
390000B0
750000A0
92000092
ABBBBBC1
B0000000
A0000000
91000000
64000000
38000030
0B0000B0
05900850
006BC700
ENDCHAR
STARTCHAR igrave
ENCODING 236
SWIDTH 141 0
DWIDTH 5 0
BBX 3 21 0 0
BITMAP
6100
3900
0930
01A0
0000
0000
0180
0190
0190
0190
0190
0190
0190
0190
0190
0190
0190
0190
0190
0190
0180
ENDCHAR
STARTCHAR iacute
ENCODING 237
SWIDTH 141 0
DWIDTH 5 0
BBX 4 21 1 0
BITMAP
0052
01B0
0930
2900
0000
0000
1800
1900
1900
1900
1900
1900
1900
1900
1900
1900
1900
1900
1900
1900
1800
ENDCHAR
STARTCHAR icircumflex
ENCODING 238
SWIDTH 141 0
DWIDTH 5 0
BBX 6 20 -1 0
BITMAP
004B00
01B580
0A3093
260017
000000
001800
001900
001900
001900
001900
001900
001900
001900
001900
001900
001900
001900
001900
001900
001800
ENDCHAR
STARTCHAR idieresis
ENCODING 239
SWIDTH 141 0
DWIDTH 5 0
BBX 5 21 0 0
BITMAP
900720
A00730
A00730
900720
000000
000000
018000
019000
019000
019000
019000
019000
019000
019000
019000
019000
019000
019000
019000
019000
018000
ENDCHAR
STARTCHAR eth
ENCODING 240
SWIDTH 319 0
DWIDTH 10 0
BBX 8 22 1 0
BITMAP
07500000
00950000
00093033
0004DA61
03A64900
00000A20
00000380
005CB7B0
04A004D4
0B100057
3800001A
6400000A
9200000A
A100000A
B000000B
A100000B
9200000A
64000038
38000074
0B1000B0
04A00850
005CC700
ENDCHAR
STARTCHAR ntilde
ENCODING 241
SWIDTH 307 0
DWIDTH 10 0
BBX 8 19 1 0
BITMAP
06C92190
0903AC40
00000000
00000000
183BBB30
1B9101B0
1D000092
19000073
19000073
19000073
19000073
19000073
19000073
19000073
19000073
19000073
19000073
19000073
18000063
ENDCHAR
STARTCHAR ograve
ENCODING 242
SWIDTH 309 0
DWIDTH 10 0
BBX 8 21 1 0
BITMAP
00700000
00750000
000B1000
00047000
00000000
00000000
006CC500
05900A30
0B1001A0
380000A1
74000065
92000037
A0000028
B0000029
A0000028
92000037
74000064
380000A1
0B1001A0
05900A30
006CB500
ENDCHAR
STARTCHAR oacute
ENCODING 243
SWIDTH 309 0
DWIDTH 10 0
BBX 8 21 1 0
BITMAP
00000700
00004800
0000B000
00064000
00000000
00000000
006CC500
05900A30
0B1001A0
380000A1
74000065
92000037
A0000028
B0000029
A0000028
92000037
74000064
380000A1
0B1001A0
05900A30
006CB500
ENDCHAR
STARTCHAR ocircumflex
ENCODING 244
SWIDTH 309 0
DWIDTH 10 0
BBX 8 20 1 0
BITMAP
00087000
00489300
01B01B10
05200350
00000000
006CC500
05900A30
0B1001A0
380000A1
74000065
92000037
A0000028
B0000029
A0000028
92000037
74000064
380000A1
0B1001A0
05900A30
006CB500
ENDCHAR
STARTCHAR otilde
ENCODING 245
SWIDTH 309 0
DWIDTH 10 0
BBX 8 19 1 0
BITMAP
06CA2190
0903AC40
00000000
00000000
006CC500
05900A30
0B1001A0
380000A1
74000065
92000037
A0000028
B0000029
A0000028
92000037
74000064
380000A1
0B1001A0
05900A30
006CB500
ENDCHAR
STARTCHAR odieresis
ENCODING 246
SWIDTH 309 0
DWIDTH 10 0
BBX 8 21 1 0
BITMAP
00900900
00A00A00
00A00A00
00900900
00000000
00000000
006CC500
05900A30
0B1001A0
380000A1
74000065
92000037
A0000028
B0000029
A0000028
92000037
74000064
380000A1
0B1001A0
05900A30
006CB500
ENDCHAR
STARTCHAR divide
ENCODING 247
SWIDTH 577 0
DWIDTH 18 0
BBX 16 15 1 0
BITMAP
0000000180000000
0000000280000000
0000000180000000
0000000000000000
0000000000000000
0000000000000000
0000000000000000
4BBBBBBBBBBBBBB9
0000000000000000
0000000000000000
0000000000000000
0000000000000000
0000000180000000
0000000280000000
0000000180000000
ENDCHAR
STARTCHAR oslash
ENCODING 248
SWIDTH 309 0
DWIDTH 10 0
BBX 8 15 1 0
BITMAP
006CB454
05900AB0
0B1004B0
380009C1
74001A64
92007447
A000B038
A0065029
A10B0028
82470037
74A10065
3A9000A1
0D2001A0
1C800A30
646CC500
ENDCHAR
STARTCHAR ugrave
ENCODING 249
SWIDTH 307 0
DWIDTH 10 0
BBX 7 21 1 0
BITMAP
00700000
00840000
001B0000
00056000
00000000
00000000
64000090
640000A0
640000A0
640000A0
640000A0
640000A0
640000A0
640000A0
640000A0
640000A0
640000A0
640000A0
560001C0
1B001AB0
05CBA290
ENDCHAR
STARTCHAR uacute
ENCODING 250
SWIDTH 307 0
DWIDTH 10 0
BBX 7 21 1 0
BITMAP
00000700
00005700
0001B000
00074000
00000000
00000000
64000090
640000A0
640000A0
640000A0
640000A0
640000A0
640000A0
640000A0
640000A0
640000A0
640000A0
640000A0
560001C0
1B001AB0
05CBA290
ENDCHAR
STARTCHAR ucircumflex
ENCODING 251
SWIDTH 307 0
DWIDTH 10 0
BBX 7 20 1 0
BITMAP
00097000
00579300
01B01B00
06200340
00000000
64000090
640000A0
640000A0
640000A0
640000A0
640000A0
640000A0
640000A0
640000A0
640000A0
640000A0
640000A0
560001C0
1B001AB0
05CBA290
ENDCHAR
STARTCHAR udieresis
ENCODING 252
SWIDTH 307 0
DWIDTH 10 0
BBX 7 21 1 0
BITMAP
00900900
00A00A00
00A00A00
00900900
00000000
00000000
64000090
640000A0
640000A0
640000A0
640000A0
640000A0
640000A0
640000A0
640000A0
640000A0
640000A0
640000A0
560001C0
1B001AB0
05CBA290
ENDCHAR
STARTCHAR yacute
ENCODING 253
SWIDTH 285 0
DWIDTH 9 0
BBX 9 27 0 -6
BITMAP
0000026000
00000A2000
0000480000
0000A10000
0000000000
0000000000
4500000360
1900000730
0A00000A00
0910000A00
0550003700
0190007300
00A000A000
009100A000
0055037000
0019073000
000A0A0000
00091A0000
0005870000
0002E30000
0000C00000
0000A00000
0003700000
0007400000
000A000000
0058000000
7B80000000
ENDCHAR
STARTCHAR thorn
ENCODING 254
SWIDTH 299 0
DWIDTH 10 0
BBX 9 28 0 -6
BITMAP
0090000000
0190000000
0190000000
0190000000
0190000000
0190000000
0190000000
01DBBB4000
4BA001B200
2190002900
0190000B00
0190000910
0190000830
0190000740
0190000640
0190000740
0190000830
0190000A10
0190000B00
01B0002800
01E600A200
0197CC4000
0190000000
0190000000
0190000000
0190000000
0190000000
0190000000
ENDCHAR
STARTCHAR ydieresis
ENCODING 255
SWIDTH 285 0
DWIDTH 9 0
BBX 9 27 0 -6
BITMAP
0054027000
0064038000
0064038000
0054027000
0000000000
0000000000
4500000360
1900000730
0A00000A00
0910000A00
0550003700
0190007300
00A000A000
009100A000
0055037000
0019073000
000A0A0000
00091A0000
0005870000
0002E30000
0000C00000
0000A00000
0003700000
0007400000
000A000000
0058000000
7B80000000
ENDCHAR
STARTCHAR dotlessi
ENCODING 305
SWIDTH 141 0
DWIDTH 5 0
BBX 2 15 1 0
BITMAP
18
19
19
19
19
19
19
19
19
19
19
19
19
19
18
ENDCHAR
STARTCHAR OE
ENCODING 338
SWIDTH 505 0
DWIDTH 16 0
BBX 14 22 1 0
BITMAP
0003ABBEBBBBB9
004B200A000000
01C1000A000000
0850000A000000
0C00000A000000
2900000A000000
6500000A000000
8300000A000000
9100000A000000
A000000A000000
B000000CBBBBB5
A000000A000000
A100000A000000
9200000A000000
7300000A000000
5600000A000000
2900000A000000
0B00000A000000
0750000A000000
01C1000A000000
004B300A000000
0003ABBEBBBBB9
ENDCHAR
STARTCHAR oe
ENCODING 339
SWIDTH 492 0
DWIDTH 16 0
BBX 14 15 1 0
BITMAP
006CC4001ABA10
05900A209403A0
0B100182900092
38000097300047
7400006D00001A
9200003C00000A
A000002EBBBBB9
B0000029000000
A000002A000000
9200003B000000
7400006D000000
38000098200003
0B100192800047
05900A209401B1
006CC5001ACB30
ENDCHAR
STARTCHAR Wcircumflex
ENCODING 372
SWIDTH 534 0
DWIDTH 17 0
BBX 15 27 1 0
BITMAP
0000000600000000
0000006A80000000
000003A084000000
0000051006000000
0000000000000000
8200000000000190
7300000000000280
6400000000000370
5500000000000460
4600000000000550
3700000000000640
2800000000000730
1900004C50000820
0A0000A1A0000910
0A0000A0A0000A00
0A0000A0A0000A00
0A000091A0000A00
0A00006770000A00
0A00001E20000A00
0910000D10000A00
0820006880001900
073001A092002800
06400A201A003700
0550760005804600
0464900000855500
03AA00000009A400
01C100000000B200
ENDCHAR
STARTCHAR wcircumflex
ENCODING 373
SWIDTH 396 0
DWIDTH 13 0
BBX 11 20 1 0
BITMAP
00003C000000
0001B4800000
000930840000
001700070000
000000000000
900000000090
A00000000190
A00000000280
A0004B100470
A000A5600550
9100A2800640
8300A3700830
6400A6500910
55006D100A00
47003D000A00
2800A9600B00
190570B20B00
0B2A002A1A00
0BB10005A900
0B3000008700
ENDCHAR
STARTCHAR Ycircumflex
ENCODING 374
SWIDTH 370 0
DWIDTH 12 0
BBX 12 27 0 0
BITMAP
000004200000
00002AB10000
0000A2390000
000240051000
000000000000
820000000046
3800000000A1
0A1000000280
046000000920
00B000001A00
006500007300
000A0000A000
000830065000
0001A00B0000
000092470000
000038A10000
00000A800000
000007400000
000007400000
000007400000
000007400000
000007400000
000007400000
000007400000
000007400000
000007400000
000006300000
ENDCHAR
STARTCHAR ycircumflex
ENCODING 375
SWIDTH 285 0
DWIDTH 9 0
BBX 9 26 0 -6
BITMAP
0001C20000
000A4A0000
0067048000
0080007000
0000000000
4500000360
1900000730
0A00000A00
0910000A00
0550003700
0190007300
00A000A000
009100A000
0055037000
0019073000
000A0A0000
00091A0000
0005870000
0002E30000
0000C00000
0000A00000
0003700000
0007400000
000A000000
0058000000
7B80000000
ENDCHAR
STARTCHAR Ydieresis
ENCODING 376
SWIDTH 370 0
DWIDTH 12 0
BBX 12 26 0 0
BITMAP
000090090000
0000A00A0000
000090090000
000000000000
820000000046
3800000000A1
0A1000000280
046000000920
00B000001A00
006500007300
000A0000A000
000830065000
0001A00B0000
000092470000
000038A10000
00000A800000
000007400000
000007400000
000007400000
000007400000
000007400000
000007400000
000007400000
000007400000
000007400000
000006300000
ENDCHAR
STARTCHAR uni0237
ENCODING 567
SWIDTH 141 0
DWIDTH 5 0
BBX 6 21 -3 -6
BITMAP
000018
000019
000019
000019
000019
000019
000019
000019
000019
000019
000019
000019
000019
000019
000019
000019
000029
000037
000093
000690
4BB600
ENDCHAR
STARTCHAR circumflex
ENCODING 710
SWIDTH 280 0
DWIDTH 9 0
BBX 5 4 2 16
BITMAP
02C100
0A4A00
750660
800080
ENDCHAR
STARTCHAR ring
ENCODING 730
SWIDTH 238 0
DWIDTH 8 0
BBX 4 4 2 17
BITMAP
5BA2
A029
A029
5BA2
ENDCHAR
STARTCHAR tilde
ENCODING 732
SWIDTH 301 0
DWIDTH 10 0
BBX 6 2 2 17
BITMAP
7B9118
904BB3
ENDCHAR
STARTCHAR gravecomb
ENCODING 768
SWIDTH 0 0
DWIDTH 0 0
BBX 3 4 2 17
BITMAP
7000
9300
1B00
0550
ENDCHAR
STARTCHAR acutecomb
ENCODING 769
SWIDTH 0 0
DWIDTH 0 0
BBX 3 4 2 17
BITMAP
0340
0B10
6600
A000
ENDCHAR
STARTCHAR uni0302
ENCODING 770
SWIDTH 0 0
DWIDTH 0 0
BBX 5 4 2 16
BITMAP
02C100
0A4A00
750660
800080
ENDCHAR
STARTCHAR tildecomb
ENCODING 771
SWIDTH 0 0
DWIDTH 0 0
BBX 6 2 2 17
BITMAP
7B9118
904BB3
ENDCHAR
STARTCHAR uni0307
ENCODING 775
SWIDTH 0 0
DWIDTH 0 0
BBX 2 4 1 17
BITMAP
18
19
19
18
ENDCHAR
STARTCHAR uni0308
ENCODING 776
SWIDTH 0 0
DWIDTH 0 0
BBX 5 4 1 17
BITMAP
180090
1900A0
1900A0
180090
ENDCHAR
STARTCHAR uni030A
ENCODING 778
SWIDTH 0 0
DWIDTH 0 0
BBX 4 4 2 17
BITMAP
5BA2
A029
A029
5BA2
ENDCHAR
STARTCHAR uni0327
ENCODING 807
SWIDTH 0 0
DWIDTH 0 0
BBX 4 6 2 -5
BITMAP
0100
1A00
7DA1
3056
4056
7B90
ENDCHAR
STARTCHAR Wgrave
ENCODING 7808
SWIDTH 534 0
DWIDTH 17 0
BBX 15 26 1 0
BITMAP
0000056000000000
000000B100000000
0000003900000000
0000000100000000
8200000000000190
7300000000000280
6400000000000370
5500000000000460
4600000000000550
3700000000000640
2800000000000730
1900004C50000820
0A0000A1A0000910
0A0000A0A0000A00
0A0000A0A0000A00
0A000091A0000A00
0A00006770000A00
0A00001E20000A00
0910000D10000A00
0820006880001900
073001A092002800
06400A201A003700
0550760005804600
0464900000855500
03AA00000009A400
01C100000000B200
ENDCHAR
STARTCHAR wgrave
ENCODING 7809
SWIDTH 396 0
DWIDTH 13 0
BBX 11 21 1 0
BITMAP
000520000000
0002A0000000
000084000000
00001A000000
000000000000
000000000000
900000000090
A00000000190
A00000000280
A0004B100470
A000A5600550
9100A2800640
8300A3700830
6400A6500910
55006D100A00
47003D000A00
2800A9600B00
190570B20B00
0B2A002A1A00
0BB10005A900
0B3000008700
ENDCHAR
STARTCHAR Wacute
ENCODING 7810
SWIDTH 534 0
DWIDTH 17 0
BBX 15 26 1 0
BITMAP
0000000028000000
00000000A2000000
0000000560000000
0000000100000000
8200000000000190
7300000000000280
6400000000000370
5500000000000460
4600000000000550
3700000000000640
2800000000000730
1900004C50000820
0A0000A1A0000910
0A0000A0A0000A00
0A0000A0A0000A00
0A000091A0000A00
0A00006770000A00
0A00001E20000A00
0910000D10000A00
0820006880001900
073001A092002800
06400A201A003700
0550760005804600
0464900000855500
03AA00000009A400
01C100000000B200
ENDCHAR
STARTCHAR wacute
ENCODING 7811
SWIDTH 396 0
DWIDTH 13 0
BBX 11 21 1 0
BITMAP
000000430000
000001B00000
000008400000
00001A000000
000000000000
000000000000
900000000090
A00000000190
A00000000280
A0004B100470
A000A5600550
9100A2800640
8300A3700830
6400A6500910
55006D100A00
47003D000A00
2800A9600B00
190570B20B00
0B2A002A1A00
0BB10005A900
0B3000008700
ENDCHAR
STARTCHAR Wdieresis
ENCODING 7812
SWIDTH 534 0
DWIDTH 17 0
BBX 15 26 1 0
BITMAP
0000036054000000
0000046055000000
0000036054000000
0000000000000000
8200000000000190
7300000000000280
6400000000000370
5500000000000460
4600000000000550
3700000000000640
2800000000000730
1900004C50000820
0A0000A1A0000910
0A0000A0A0000A00
0A0000A0A0000A00
0A000091A0000A00
0A00006770000A00
0A00001E20000A00
0910000D10000A00
0820006880001900
073001A092002800
06400A201A003700
0550760005804600
0464900000855500
03AA00000009A400
01C100000000B200
ENDCHAR
STARTCHAR wdieresis
ENCODING 7813
SWIDTH 396 0
DWIDTH 13 0
BBX 11 21 1 0
BITMAP
000910630000
000910640000
000910640000
000910630000
000000000000
000000000000
900000000090
A00000000190
A00000000280
A0004B100470
A000A5600550
9100A2800640
8300A3700830
6400A6500910
55006D100A00
47003D000A00
2800A9600B00
190570B20B00
0B2A002A1A00
0BB10005A900
0B3000008700
ENDCHAR
STARTCHAR uni1E9E
ENCODING 7838
SWIDTH 375 0
DWIDTH 12 0
BBX 10 22 1 0
BITMAP
005BBB7000
04A1006800
0A10000A20
0B00000460
1900000380
1900000280
1900000470
1900000740
1905BB5C10
190B01C900
190B03CC30
1905BA22A0
19000000B1
1900000074
1900000065
1900000055
1900000064
1900000092
19000000B0
1900000660
1910005A00
188BBB7000
ENDCHAR
STARTCHAR Ygrave
ENCODING 7922
SWIDTH 370 0
DWIDTH 12 0
BBX 12 26 0 0
BITMAP
0000A0000000
000066000000
00000B100000
000001000000
820000000046
3800000000A1
0A1000000280
046000000920
00B000001A00
006500007300
000A0000A000
000830065000
0001A00B0000
000092470000
000038A10000
00000A800000
000007400000
000007400000
000007400000
000007400000
000007400000
000007400000
000007400000
000007400000
000007400000
000006300000
ENDCHAR
STARTCHAR ygrave
ENCODING 7923
SWIDTH 285 0
DWIDTH 9 0
BBX 9 27 0 -6
BITMAP
0034000000
000B100000
0004800000
0000A10000
0000000000
0000000000
4500000360
1900000730
0A00000A00
0910000A00
0550003700
0190007300
00A000A000
009100A000
0055037000
0019073000
000A0A0000
00091A0000
0005870000
0002E30000
0000C00000
0000A00000
0003700000
0007400000
000A000000
0058000000
7B80000000
ENDCHAR
STARTCHAR endash
ENCODING 8211
SWIDTH 425 0
DWIDTH 14 0
BBX 12 1 1 7
BITMAP
7BBBBBBBBBB3
ENDCHAR
STARTCHAR emdash
ENCODING 8212
SWIDTH 770 0
DWIDTH 25 0
BBX 23 1 1 7
BITMAP
7BBBBBBBBBBBBBBBBBBBBB30
ENDCHAR
STARTCHAR quoteleft
ENCODING 8216
SWIDTH 145 0
DWIDTH 5 0
BBX 3 6 1 16
BITMAP
0870
4800
6400
6400
6400
6300
ENDCHAR
STARTCHAR quoteright
ENCODING 8217
SWIDTH 145 0
DWIDTH 5 0
BBX 3 6 1 16
BITMAP
0900
0910
0910
0A00
0B00
B400
ENDCHAR
STARTCHAR quotesinglbase
ENCODING 8218
SWIDTH 145 0
DWIDTH 5 0
BBX 3 6 0 -3
BITMAP
0090
00A0
00A0
00A0
0380
3B10
ENDCHAR
STARTCHAR quotedblleft
ENCODING 8220
SWIDTH 219 0
DWIDTH 7 0
BBX 5 6 1 16
BITMAP
0874B0
480B00
640A00
640A00
640A00
630900
ENDCHAR
STARTCHAR quotedblright
ENCODING 8221
SWIDTH 219 0
DWIDTH 7 0
BBX 5 6 1 16
BITMAP
090360
091460
091460
0A0460
0B0840
B46900
ENDCHAR
STARTCHAR quotedblbase
ENCODING 8222
SWIDTH 219 0
DWIDTH 7 0
BBX 6 6 0 -3
BITMAP
009081
00A091
00A091
00A091
0380B0
3B1A50
ENDCHAR
STARTCHAR bullet
ENCODING 8226
SWIDTH 355 0
DWIDTH 11 0
BBX 9 8 1 7
BITMAP
004CED8000
05FFFFFA00
0DFFFFFF30
1FFFFFFF60
0EFFFFFF50
09FFFFFE10
01BFFFE400
0004751000
ENDCHAR
STARTCHAR ellipsis
ENCODING 8230
SWIDTH 651 0
DWIDTH 21 0
BBX 17 3 2 0
BITMAP
630000009000000540
74000000A000000640
630000009000000540
ENDCHAR
STARTCHAR guilsinglleft
ENCODING 8249
SWIDTH 263 0
DWIDTH 8 0
BBX 7 13 1 3
BITMAP
00000100
00001B10
0001B200
000A3000
00940000
08500000
76000000
59000000
06700000
00860000
00095000
0000A300
00000A10
ENDCHAR
STARTCHAR guilsinglright
ENCODING 8250
SWIDTH 263 0
DWIDTH 8 0
BBX 6 13 1 3
BITMAP
740000
0A3000
01B200
001B10
0002B1
00003A
00002B
0001B2
001A20
00A300
094000
760000
100000
ENDCHAR
STARTCHAR fraction
ENCODING 8260
SWIDTH 152 0
DWIDTH 5 0
BBX 12 22 -4 0
BITMAP
00000000000A
000000000038
0000000000A1
000000000380
000000000A10
000000003800
00000000A100
000000038000
0000000A1000
000000380000
000000A10000
000003800000
00000A100000
000038000000
0000A1000000
000380000000
000A20000000
003900000000
00A200000000
029000000000
092000000000
180000000000
ENDCHAR
STARTCHAR uni2074
ENCODING 8308
SWIDTH 247 0
DWIDTH 8 0
BBX 6 10 1 12
BITMAP
002700
008300
00A000
065900
0B0A00
380A00
920A00
BAADA5
000A00
000900
ENDCHAR
STARTCHAR Euro
ENCODING 8364
SWIDTH 391 0
DWIDTH 13 0
BBX 12 22 0 0
BITMAP
000004BBCB50
00006A100173
0003B0000000
000A20000000
001A00000000
005600000000
009300000000
00B000000000
00B000000000
9BEBBBB40000
00B000000000
00B000000000
9BEBBBB40000
00B000000000
00B000000000
009200000000
005600000000
001A00000000
000A20000000
0003B0000000
00006A100183
000004BBCB50
ENDCHAR
STARTCHAR trademark
ENCODING 8482
SWIDTH 506 0
DWIDTH 16 0
BBX 15 11 0 11
BITMAP
4FFFFF23C2000880
000A0003AC52B990
000A0003719D2190
000A000370AA2190
000A000370A82190
000A0003706C0190
000A0003708B0190
000A000370A82190
000A0003708D0190
000A000370000190
0009000360000180
ENDCHAR
STARTCHAR minus
ENCODING 8722
SWIDTH 557 0
DWIDTH 18 0
BBX 16 1 1 9
BITMAP
8DDDDDDDDDDDDDD6
ENDCHAR
STARTCHAR uni2215
ENCODING 8725
SWIDTH 259 0
DWIDTH 8 0
BBX 9 23 0 0
BITMAP
0000000910
0000000A00
0000004600
0000009200
000000A000
0000047000
0000092000
00000A0000
0000470000
0000820000
0000A00000
0003700000
0008200000
000B000000
0038000000
0083000000
00B0000000
0380000000
0730000000
0A00000000
2800000000
7300000000
9000000000
ENDCHAR
STARTCHAR .notdef
ENCODING -1
SWIDTH 500 0
DWIDTH 16 0
BBX 14 29 1 -6
BITMAP
49999999999994
6FFFFFFFFFFFF6
6F3000000003F6
6F3000000003F6
6F3000000003F6
6F3000000003F6
6F3000000003F6
6F3000000003F6
6F3000000003F6
6F3000000003F6
6F3000000003F6
6F3000000003F6
6F3000000003F6
6F3000000003F6
6F3000000003F6
6F3000000003F6
6F3000000003F6
6F3000000003F6
6F3000000003F6
6F3000000003F6
6F3000000003F6
6F3000000003F6
6F3000000003F6
6F3000000003F6
6F3000000003F6
6F3000000003F6
6F3000000003F6
6FA99999999AF6
6FFFFFFFFFFFF6
ENDCHAR
STARTCHAR NULL
ENCODING -1
SWIDTH 600 0
DWIDTH 19 0
BBX 1 1 0 0
BITMAP
00
ENDCHAR
STARTCHAR acutecomb.case
ENCODING -1
SWIDTH 0 0
DWIDTH 0 0
BBX 3 4 2 22
BITMAP
0910
4800
B000
1000
ENDCHAR
STARTCHAR uni0302.case
ENCODING -1
SWIDTH 0 0
DWIDTH 0 0
BBX 5 4 2 23
BITMAP
024000
0AA200
841B10
600330
ENDCHAR
STARTCHAR uni0308.case
ENCODING -1
SWIDTH 0 0
DWIDTH 0 0
BBX 5 3 1 23
BITMAP
180370
190370
180370
ENDCHAR
STARTCHAR uni0307.case
ENCODING -1
SWIDTH 0 0
DWIDTH 0 0
BBX 2 3 1 23
BITMAP
18
19
18
ENDCHAR
STARTCHAR gravecomb.case
ENCODING -1
SWIDTH 0 0
DWIDTH 0 0
BBX 3 4 2 22
BITMAP
A000
6600
0B10
0100
ENDCHAR
STARTCHAR uni030A.case
ENCODING -1
SWIDTH 0 0
DWIDTH 0 0
BBX 4 4 2 23
BITMAP
5B90
A055
A065
5B90
ENDCHAR
STARTCHAR tildecomb.case
ENCODING -1
SWIDTH 0 0
DWIDTH 0 0
BBX 6 2 2 23
BITMAP
7B8145
905BA1
ENDCHAR
ENDFONT
